<?xml version="1.0" encoding="UTF-8" standalone="no"?>
<!DOCTYPE svg PUBLIC "-//W3C//DTD SVG 1.1//EN" "http://www.w3.org/Graphics/SVG/1.1/DTD/svg11.dtd">
<svg width="100%" height="100%" viewBox="0 0 2000 500" version="1.1" xmlns="http://www.w3.org/2000/svg" xmlns:xlink="http://www.w3.org/1999/xlink" xml:space="preserve" xmlns:serif="http://www.serif.com/" style="fill-rule:evenodd;clip-rule:evenodd;stroke-linejoin:round;stroke-miterlimit:2;">
    <g transform="matrix(1.125,0,0,1.33333,-125,-350)">
        <path d="M1800,449.944L1800,450.056C1800,532.813 1720.37,600 1622.29,600L377.711,600C279.63,600 200,532.813 200,450.056L200,449.944C200,367.187 279.63,300 377.711,300L1622.29,300C1720.37,300 1800,367.187 1800,449.944Z" style="fill:white;"/>
    </g>
    <g transform="matrix(9.31762,0,0,9.31762,240.912,328.268)">
        <g transform="matrix(1,0,0,1,0,-0.00008)">
            <g transform="matrix(1.999895,0,0,1.999895,-685.835219,-224.953509)">
                <g transform="matrix(12,0,0,12,404.722632,112.482494)">
                </g>
                <text x="362.699px" y="112.482px" style="font-family:'Rubik-BlackItalic', 'Rubik';font-weight:900;font-style:italic;font-size:12px;">KEPK<tspan x="395.819px " y="112.482px ">O</tspan></text>
            </g>
            <g transform="matrix(0.107324,0,0,0.107324,-25.85553,-35.606437)">
                <path d="M1391.596,366.974L1391.596,367.026C1391.596,373.083 1386.678,378 1380.622,378L619.378,378C613.322,378 608.404,373.083 608.404,367.026L608.404,366.974C608.404,360.917 613.322,356 619.378,356L1380.622,356C1386.678,356 1391.596,360.917 1391.596,366.974Z" style="fill:rgb(0,87,184);"/>
            </g>
            <g transform="matrix(0.107324,0,0,0.107324,-25.85553,-33.245319)">
                <path d="M1391.596,366.974L1391.596,367.026C1391.596,373.083 1386.678,378 1380.622,378L619.378,378C613.322,378 608.404,373.083 608.404,367.026L608.404,366.974C608.404,360.917 613.322,356 619.378,356L1380.622,356C1386.678,356 1391.596,360.917 1391.596,366.974Z" style="fill:rgb(4,179,79);"/>
            </g>
            <g transform="matrix(0.107324,0,0,0.107324,-25.85553,-59.968882)">
                <path d="M1391.596,366.974L1391.596,367.026C1391.596,373.083 1386.678,378 1380.622,378L619.378,378C613.322,378 608.404,373.083 608.404,367.026L608.404,366.974C608.404,360.917 613.322,356 619.378,356L1380.622,356C1386.678,356 1391.596,360.917 1391.596,366.974Z" style="fill:rgb(255,153,0);"/>
            </g>
            <g transform="matrix(0.107324,0,0,0.107324,-25.85553,-62.33)">
                <path d="M1391.596,366.974L1391.596,367.026C1391.596,373.083 1386.678,378 1380.622,378L619.378,378C613.322,378 608.404,373.083 608.404,367.026L608.404,366.974C608.404,360.917 613.322,356 619.378,356L1380.622,356C1386.678,356 1391.596,360.917 1391.596,366.974Z" style="fill:rgb(208,0,54);"/>
            </g>
        </g>
    </g>
</svg>
