<?xml version="1.0" encoding="UTF-8" standalone="no"?>
<!DOCTYPE svg PUBLIC "-//W3C//DTD SVG 1.1//EN" "http://www.w3.org/Graphics/SVG/1.1/DTD/svg11.dtd">
<svg width="100%" height="100%" viewBox="0 0 2000 500" version="1.1" xmlns="http://www.w3.org/2000/svg" xmlns:xlink="http://www.w3.org/1999/xlink" xml:space="preserve" xmlns:serif="http://www.serif.com/" style="fill-rule:evenodd;clip-rule:evenodd;stroke-linecap:round;stroke-linejoin:round;stroke-miterlimit:1.5;">
    <g transform="matrix(110,0,0,1.259836,-8020,-35.667307)">
        <g transform="matrix(0.265152,0,0,1.267472,-13.454545,-20.0772)">
            <path d="M384,194.74C384,263.867 380.927,319.99 377.143,319.99L342.857,319.99C339.073,319.99 336,263.867 336,194.74C336,125.612 339.073,69.49 342.857,69.49L377.143,69.49C380.927,69.49 384,125.612 384,194.74Z" style="fill:white;stroke:rgb(216,216,216);stroke-width:0.19px;"/>
        </g>
        <g transform="matrix(0.210438,0,0,18.373938,1.451599,-1762.817121)">
            <g>
                <g transform="matrix(1,0,0,1,362.699,112.482)">
                    <g>
                        <g>
                            <path d="M0.984,0C0.896,0 0.82,-0.032 0.756,-0.096C0.692,-0.16 0.66,-0.236 0.66,-0.324L0.66,-8.076C0.66,-8.164 0.692,-8.24 0.756,-8.304C0.82,-8.368 0.896,-8.4 0.984,-8.4L3.276,-8.4C3.364,-8.4 3.44,-8.368 3.504,-8.304C3.568,-8.24 3.6,-8.164 3.6,-8.076L3.6,-5.7L4.956,-8.136C5.052,-8.312 5.212,-8.4 5.436,-8.4L8.088,-8.4C8.16,-8.4 8.222,-8.374 8.274,-8.322C8.326,-8.27 8.352,-8.208 8.352,-8.136C8.352,-8.088 8.34,-8.044 8.316,-8.004L6.156,-4.38L8.52,-0.396C8.544,-0.364 8.556,-0.32 8.556,-0.264C8.556,-0.192 8.53,-0.13 8.478,-0.078C8.426,-0.026 8.364,0 8.292,0L5.556,0C5.42,0 5.312,-0.03 5.232,-0.09C5.152,-0.15 5.096,-0.212 5.064,-0.276L3.6,-2.892L3.6,-0.324C3.6,-0.236 3.568,-0.16 3.504,-0.096C3.44,-0.032 3.364,0 3.276,0L0.984,0Z" style="fill:rgb(33,33,33);"/>
                            <path d="M9.564,0C9.476,0 9.4,-0.032 9.336,-0.096C9.272,-0.16 9.24,-0.236 9.24,-0.324L9.24,-8.076C9.24,-8.164 9.272,-8.24 9.336,-8.304C9.4,-8.368 9.476,-8.4 9.564,-8.4L15.72,-8.4C15.808,-8.4 15.884,-8.368 15.948,-8.304C16.012,-8.24 16.044,-8.164 16.044,-8.076L16.044,-6.384C16.044,-6.296 16.012,-6.22 15.948,-6.156C15.884,-6.092 15.808,-6.06 15.72,-6.06L12.12,-6.06L12.12,-5.304L15.456,-5.304C15.544,-5.304 15.62,-5.272 15.684,-5.208C15.748,-5.144 15.78,-5.068 15.78,-4.98L15.78,-3.42C15.78,-3.332 15.748,-3.256 15.684,-3.192C15.62,-3.128 15.544,-3.096 15.456,-3.096L12.12,-3.096L12.12,-2.34L15.816,-2.34C15.904,-2.34 15.98,-2.308 16.044,-2.244C16.108,-2.18 16.14,-2.104 16.14,-2.016L16.14,-0.324C16.14,-0.236 16.108,-0.16 16.044,-0.096C15.98,-0.032 15.904,0 15.816,0L9.564,0Z" style="fill:rgb(33,33,33);"/>
                            <path d="M17.568,0C17.48,0 17.404,-0.032 17.34,-0.096C17.276,-0.16 17.244,-0.236 17.244,-0.324L17.244,-8.076C17.244,-8.164 17.276,-8.24 17.34,-8.304C17.404,-8.368 17.48,-8.4 17.568,-8.4L21.204,-8.4C22.324,-8.4 23.206,-8.152 23.85,-7.656C24.494,-7.16 24.816,-6.428 24.816,-5.46C24.816,-4.5 24.496,-3.786 23.856,-3.318C23.216,-2.85 22.332,-2.616 21.204,-2.616L20.364,-2.616L20.364,-0.324C20.364,-0.236 20.332,-0.16 20.268,-0.096C20.204,-0.032 20.128,0 20.04,0L17.568,0ZM21.144,-4.836C21.288,-4.836 21.416,-4.89 21.528,-4.998C21.64,-5.106 21.696,-5.268 21.696,-5.484C21.696,-5.668 21.652,-5.828 21.564,-5.964C21.476,-6.1 21.336,-6.168 21.144,-6.168L20.304,-6.168L20.304,-4.836L21.144,-4.836Z" style="fill:rgb(33,33,33);"/>
                            <path d="M26.028,0C25.94,0 25.864,-0.032 25.8,-0.096C25.736,-0.16 25.704,-0.236 25.704,-0.324L25.704,-8.076C25.704,-8.164 25.736,-8.24 25.8,-8.304C25.864,-8.368 25.94,-8.4 26.028,-8.4L28.32,-8.4C28.408,-8.4 28.484,-8.368 28.548,-8.304C28.612,-8.24 28.644,-8.164 28.644,-8.076L28.644,-5.7L30,-8.136C30.096,-8.312 30.256,-8.4 30.48,-8.4L33.132,-8.4C33.204,-8.4 33.266,-8.374 33.318,-8.322C33.37,-8.27 33.396,-8.208 33.396,-8.136C33.396,-8.088 33.384,-8.044 33.36,-8.004L31.2,-4.38L33.564,-0.396C33.588,-0.364 33.6,-0.32 33.6,-0.264C33.6,-0.192 33.574,-0.13 33.522,-0.078C33.47,-0.026 33.408,0 33.336,0L30.6,0C30.464,0 30.356,-0.03 30.276,-0.09C30.196,-0.15 30.14,-0.212 30.108,-0.276L28.644,-2.892L28.644,-0.324C28.644,-0.236 28.612,-0.16 28.548,-0.096C28.484,-0.032 28.408,0 28.32,0L26.028,0Z" style="fill:rgb(33,33,33);"/>
                            <g transform="matrix(1,0,0,1,33.12,0)">
                                <path d="M4.452,0.12C3.252,0.12 2.296,-0.156 1.584,-0.708C0.872,-1.26 0.492,-2.064 0.444,-3.12C0.436,-3.336 0.432,-3.684 0.432,-4.164C0.432,-4.652 0.436,-5.008 0.444,-5.232C0.468,-5.92 0.65,-6.512 0.99,-7.008C1.33,-7.504 1.796,-7.88 2.388,-8.136C2.98,-8.392 3.668,-8.52 4.452,-8.52C5.236,-8.52 5.924,-8.392 6.516,-8.136C7.108,-7.88 7.574,-7.504 7.914,-7.008C8.254,-6.512 8.436,-5.92 8.46,-5.232C8.476,-4.784 8.484,-4.428 8.484,-4.164C8.484,-3.9 8.476,-3.552 8.46,-3.12C8.412,-2.064 8.032,-1.26 7.32,-0.708C6.608,-0.156 5.652,0.12 4.452,0.12ZM4.452,-2.22C4.724,-2.22 4.938,-2.3 5.094,-2.46C5.25,-2.62 5.332,-2.864 5.34,-3.192C5.356,-3.656 5.364,-3.996 5.364,-4.212C5.364,-4.444 5.356,-4.776 5.34,-5.208C5.332,-5.536 5.248,-5.78 5.088,-5.94C4.928,-6.1 4.716,-6.18 4.452,-6.18C4.188,-6.18 3.976,-6.1 3.816,-5.94C3.656,-5.78 3.572,-5.536 3.564,-5.208C3.556,-4.992 3.552,-4.66 3.552,-4.212C3.552,-3.764 3.556,-3.424 3.564,-3.192C3.572,-2.864 3.654,-2.62 3.81,-2.46C3.966,-2.3 4.18,-2.22 4.452,-2.22Z" style="fill:rgb(33,33,33);"/>
                            </g>
                        </g>
                    </g>
                </g>
            </g>
        </g>
    </g>
</svg>
