<?xml version="1.0" encoding="UTF-8" standalone="no"?>
<!DOCTYPE svg PUBLIC "-//W3C//DTD SVG 1.1//EN" "http://www.w3.org/Graphics/SVG/1.1/DTD/svg11.dtd">
<svg width="100%" height="100%" viewBox="0 0 2000 500" version="1.1" xmlns="http://www.w3.org/2000/svg" xmlns:xlink="http://www.w3.org/1999/xlink" xml:space="preserve" xmlns:serif="http://www.serif.com/" style="fill-rule:evenodd;clip-rule:evenodd;stroke-linejoin:round;stroke-miterlimit:2;">
    <g transform="matrix(110,0,0,1.259836,-8020,-35.667307)">
        <path d="M87,226.751C87,314.368 86.185,385.502 85.182,385.502L78.818,385.502C77.815,385.502 77,314.368 77,226.751C77,139.134 77.815,68 78.818,68L85.182,68C86.185,68 87,139.134 87,226.751Z" style="fill:white;"/>
    </g>
    <g transform="matrix(9.31762,0,0,9.31762,240.912,328.268)">
        <g transform="matrix(1.999895,0,0,1.999895,-685.835219,-224.953589)">
            <g>
                <g transform="matrix(1,0,0,1,362.699,112.482)">
                    <text x="0px" y="0px" style="font-family:'Rubik-Black', 'Rubik';font-weight:900;font-size:12px;">KEPK</text>
                </g>
                <g transform="matrix(1,0,0,1,395.819,112.482)">
                    <text x="0px" y="0px" style="font-family:'Rubik-Black', 'Rubik';font-weight:900;font-size:12px;">O</text>
                </g>
            </g>
        </g>
    </g>
</svg>
